<svg xmlns="http://www.w3.org/2000/svg" xmlns:xlink="http://www.w3.org/1999/xlink" version="1.1" x="0px" y="0px" viewBox="0 0 60 69.26249999999999" enable-background="new 0 0 60 55.41" xml:space="preserve"><g><path d="M55,19c-0.55,0-1,0.45-1,1v1c0,0.55,0.45,1,1,1s1-0.45,1-1v-1C56,19.45,55.55,19,55,19z"/><path d="M55,10.83c-0.55,0-1,0.45-1,1v2.33c0,0.55,0.45,1,1,1s1-0.45,1-1v-2.33C56,11.28,55.55,10.83,55,10.83z"/><path d="M54,6c0,0.55,0.45,1,1,1s1-0.45,1-1V4h-2c-0.55,0-1,0.45-1,1S53.45,6,54,6z"/><path d="M46.85,6h2.04c0.55,0,1-0.45,1-1s-0.45-1-1-1h-2.04c-0.55,0-1,0.45-1,1S46.3,6,46.85,6z"/><path d="M25.4,6h2.04c0.55,0,1-0.45,1-1s-0.45-1-1-1H25.4c-0.55,0-1,0.45-1,1S24.85,6,25.4,6z"/><path d="M18.26,6h2.04c0.55,0,1-0.45,1-1s-0.45-1-1-1h-2.04c-0.55,0-1,0.45-1,1S17.7,6,18.26,6z"/><path d="M11.11,6h2.04c0.55,0,1-0.45,1-1s-0.45-1-1-1h-2.04c-0.55,0-1,0.45-1,1S10.55,6,11.11,6z"/><path d="M39.7,6h2.04c0.55,0,1-0.45,1-1s-0.45-1-1-1H39.7c-0.55,0-1,0.45-1,1S39.15,6,39.7,6z"/><path d="M32.55,6h2.04c0.55,0,1-0.45,1-1s-0.45-1-1-1h-2.04c-0.55,0-1,0.45-1,1S32,6,32.55,6z"/><path d="M5,7c0.55,0,1-0.45,1-1c0.55,0,1-0.45,1-1S6.55,4,6,4H4v2C4,6.55,4.45,7,5,7z"/><path d="M5,14.21c0.55,0,1-0.45,1-1v-2.06c0-0.55-0.45-1-1-1s-1,0.45-1,1v2.06C4,13.76,4.45,14.21,5,14.21z"/><path d="M5,21.42c0.55,0,1-0.45,1-1v-2.06c0-0.55-0.45-1-1-1s-1,0.45-1,1v2.06C4,20.98,4.45,21.42,5,21.42z"/><path d="M5,35.85c0.55,0,1-0.45,1-1v-2.06c0-0.55-0.45-1-1-1s-1,0.45-1,1v2.06C4,35.4,4.45,35.85,5,35.85z"/><path d="M5,28.64c0.55,0,1-0.45,1-1v-2.06c0-0.55-0.45-1-1-1s-1,0.45-1,1v2.06C4,28.19,4.45,28.64,5,28.64z"/><path d="M7,41c0-0.55-0.45-1-1-1c0-0.55-0.45-1-1-1s-1,0.45-1,1v2h2C6.55,42,7,41.55,7,41z"/><path d="M20,40h-2c-0.55,0-1,0.45-1,1s0.45,1,1,1h2c0.55,0,1-0.45,1-1S20.55,40,20,40z"/><path d="M27,40h-2c-0.55,0-1,0.45-1,1s0.45,1,1,1h2c0.55,0,1-0.45,1-1S27.55,40,27,40z"/><path d="M11,42h2c0.55,0,1-0.45,1-1s-0.45-1-1-1h-2c-0.55,0-1,0.45-1,1S10.45,42,11,42z"/><path d="M33,40h-1c-0.55,0-1,0.45-1,1s0.45,1,1,1h1c0.55,0,1-0.45,1-1S33.55,40,33,40z"/><path d="M60,0H0v46h38v9.41l7-7l7,7V46h8V0z M50,50.59l-5-5l-5,5V46v-6.35c0.01,0.01,0.03,0.01,0.04,0.02   C41.5,40.51,43.19,41,45,41s3.5-0.49,4.96-1.33c0.01-0.01,0.03-0.01,0.04-0.02V46V50.59z M50.29,36.98   c-0.16,0.14-0.32,0.27-0.48,0.4c-0.03,0.02-0.06,0.05-0.1,0.07c-0.16,0.12-0.33,0.23-0.51,0.34c-0.04,0.02-0.08,0.05-0.12,0.07   c-0.17,0.1-0.34,0.2-0.51,0.28c-0.05,0.03-0.1,0.05-0.15,0.07c-0.17,0.08-0.34,0.16-0.51,0.22c-0.07,0.03-0.13,0.05-0.2,0.07   c-0.16,0.06-0.32,0.11-0.49,0.16c-0.09,0.03-0.18,0.05-0.27,0.07c-0.15,0.04-0.3,0.08-0.45,0.1c-0.13,0.02-0.26,0.04-0.39,0.06   c-0.12,0.02-0.24,0.04-0.35,0.05C45.52,38.99,45.26,39,45,39s-0.52-0.01-0.77-0.04c-0.12-0.01-0.24-0.03-0.35-0.05   c-0.13-0.02-0.26-0.03-0.39-0.06c-0.15-0.03-0.3-0.07-0.45-0.1c-0.09-0.02-0.18-0.04-0.27-0.07c-0.16-0.05-0.33-0.1-0.49-0.16   c-0.07-0.02-0.13-0.05-0.2-0.07c-0.17-0.07-0.34-0.14-0.51-0.22c-0.05-0.02-0.1-0.05-0.15-0.07c-0.17-0.09-0.35-0.18-0.51-0.28   c-0.04-0.02-0.08-0.05-0.12-0.07c-0.17-0.11-0.34-0.22-0.51-0.34c-0.03-0.02-0.06-0.05-0.1-0.07c-0.17-0.13-0.33-0.26-0.48-0.4   C38.05,35.52,37,33.38,37,31c0-4.41,3.59-8,8-8s8,3.59,8,8C53,33.38,51.95,35.52,50.29,36.98z M58,44h-6v-5.87   c1.85-1.82,3-4.34,3-7.13c0-5.51-4.49-10-10-10s-10,4.49-10,10c0,2.79,1.15,5.31,3,7.13V44H2V2h56V44z"/><path d="M12.18,12.77c-0.61,0.72-0.89,1.65-0.79,2.6c0.1,0.98,0.61,1.89,1.38,2.49L15,19.6v5.44c-1.16-0.41-2-1.51-2-2.82   c0-0.55-0.45-1-1-1s-1,0.45-1,1c0,2.41,1.72,4.43,4,4.9V28c0,0.55,0.45,1,1,1s1-0.45,1-1v-0.88c1.09-0.22,2.09-0.8,2.82-1.67   c0.61-0.72,0.89-1.65,0.79-2.61c-0.1-0.98-0.61-1.88-1.38-2.49L17,18.62v-5.44c1.16,0.41,2,1.51,2,2.82c0,0.55,0.45,1,1,1   s1-0.45,1-1c0-2.41-1.72-4.43-4-4.9V10c0-0.55-0.45-1-1-1s-1,0.45-1,1v1.1C13.91,11.33,12.91,11.91,12.18,12.77z M18,21.93   c0.35,0.27,0.58,0.68,0.62,1.12c0.04,0.41-0.08,0.8-0.33,1.11c-0.35,0.41-0.8,0.7-1.29,0.88v-3.88L18,21.93z M14,16.29   c-0.35-0.27-0.58-0.68-0.62-1.12c-0.04-0.41,0.08-0.8,0.33-1.1c0.35-0.41,0.8-0.7,1.29-0.88v3.88L14,16.29z"/><path d="M25,15h23c0.55,0,1-0.45,1-1s-0.45-1-1-1H25c-0.55,0-1,0.45-1,1S24.45,15,25,15z"/><path d="M25,21h11c0.55,0,1-0.45,1-1s-0.45-1-1-1H25c-0.55,0-1,0.45-1,1S24.45,21,25,21z"/><path d="M25,27h8c0.55,0,1-0.45,1-1s-0.45-1-1-1h-8c-0.55,0-1,0.45-1,1S24.45,27,25,27z"/><path d="M11,34h21c0.55,0,1-0.45,1-1s-0.45-1-1-1H11c-0.55,0-1,0.45-1,1S10.45,34,11,34z"/></g><text x="0" y="70.41" fill="#000000" font-size="5px" font-weight="bold" font-family="'Helvetica Neue', Helvetica, Arial-Unicode, Arial, Sans-serif">Created by Ben Davis</text><text x="0" y="75.41" fill="#000000" font-size="5px" font-weight="bold" font-family="'Helvetica Neue', Helvetica, Arial-Unicode, Arial, Sans-serif">from the Noun Project</text></svg>