<?xml version="1.0" ?><svg id="Layer_1" width="24px" fill="#fff" style="enable-background:new 0 0 100 100;" version="1.1" viewBox="0 0 100 100" xml:space="preserve" xmlns="http://www.w3.org/2000/svg" xmlns:xlink="http://www.w3.org/1999/xlink"><g><path d="M92.2,9c-1.1,0-2.5,0.2-4.2,0.8c-2.5,0.8-24.7,9.2-44.3,17.3c-8.6,3.5-16.1,6.8-20.9,8.8c-0.5,0.2-0.7,0.8-0.5,1.3   c0.2,0.5,0.8,0.7,1.3,0.5c4.8-2.1,12.2-5.3,20.8-8.8C65,20.4,86.4,12.3,88.6,11.7c1.6-0.5,2.7-0.7,3.6-0.7c1.3,0,2,0.4,2,2.3   c0,0.5-0.1,1.1-0.2,1.8c-0.1,0.6-0.3,1.7-0.5,3.2c-0.9,5.6-2.7,16-4.8,26.7c-0.4,2.3-0.9,4.6-1.4,6.9c-0.1,0.5,0.2,1.1,0.8,1.2   c0.1,0,0.1,0,0.2,0c0.5,0,0.9-0.3,1-0.8c0.5-2.3,0.9-4.6,1.4-6.9c2.1-10.7,3.8-21.2,4.8-26.8c0.2-1.4,0.4-2.5,0.5-3.2   c0.1-0.8,0.2-1.5,0.2-2.1C96.2,9.7,94,9,92.2,9z"/><path d="M86.5,60.9c-0.5-0.1-1.1,0.2-1.2,0.8c-2.2,10.2-4.1,18.7-4.8,21.9c-0.2,0.7-0.3,1.1-0.3,1.3c-0.5,2.6-2,4.1-4,4.1   c-1.3,0-2.8-0.7-4.4-2c-1.6-1.6-17.6-14.3-26-20.7c-0.2-0.1-0.3-0.2-0.5-0.2l-3.7-2.8l25.7-23.8c6.4-5.9,11.5-10.5,11.9-10.9   c0.1-0.1,0.2-0.2,0.3-0.4l0.5-0.5c0.1-0.1,0.2-0.3,0.3-0.5c0,0,0.1-0.4,0.1-0.9c0-0.1,0.1-0.3,0.1-0.4c0-0.6-0.2-1-0.6-1.3   c-0.1-0.2-0.3-0.3-0.4-0.3c-0.3-0.1-0.5-0.2-0.9-0.2c-0.6,0-1.2,0.3-1.6,0.5c0,0,0,0-0.1,0c-0.3,0.1-0.5,0.3-0.5,0.3l-0.1,0   c-0.7,0.5-6.2,4.1-13.3,8.8c0,0,0,0,0,0l-8.3,5.5c0,0,0,0,0,0L28.7,56.8c-2.7-0.9-16.4-5.5-19.5-7.1c-2-0.9-3.2-2-3.2-2.8   c0-1.1,2-2.5,4.9-3.5c0,0,0.1,0,0.1-0.1c0.3-0.1,1.3-0.6,3.5-1.6c0.5-0.2,0.7-0.8,0.5-1.3c-0.2-0.5-0.8-0.7-1.3-0.5   c-1.8,0.8-3.1,1.4-3.5,1.6C8.3,42.2,4,44,4,46.9c0,1.7,1.4,3.2,4.3,4.6c3.1,1.6,16.8,6.2,19.7,7.1l2.6,9c0.1,0.4,0.5,0.7,1,0.7   c0.1,0,0.2,0,0.3,0c0.5-0.2,0.8-0.7,0.7-1.2L30,58.3l47.7-31.6c0,0,0,0,0,0c0.2-0.1,0.3-0.2,0.5-0.3c0,0,0,0,0,0   c0.1-0.1,0.3-0.1,0.4-0.1c-0.1,0.1-0.2,0.4-0.4,0.6l-3.6,3.3c-0.1,0.1-0.1,0.2-0.2,0.2c-1.8,1.7-4.3,3.9-7.1,6.5c0,0,0,0,0,0   l-1.2,1.1c-6.9,6.4-16,14.6-24.2,22.2c-0.2,0.1-0.2,0.3-0.3,0.5l-1.7,1.6c-0.1,0-0.2,0-0.3,0.1c-0.3,0.1-0.6,0.5-0.6,0.8   c-0.5,5.6-1.4,15.2-1.8,19.5c0,0,0,0,0-0.1c-0.1-0.4-0.6-2.2-1.8-6c-0.2-0.5-0.7-0.8-1.2-0.7c-0.5,0.2-0.8,0.7-0.7,1.2   c0.7,2.3,1.6,5.5,1.7,5.9c0.4,1.8,1.6,2.8,2.2,3.2c0.4,0.4,0.9,0.6,1.6,0.6c0.7,0,1.5-0.3,2.2-0.8c3.7-3,10.1-9.7,11.9-11.6   c8,6.3,16.6,13.1,17.3,13.9c0,0,0.1,0.1,0.1,0.1c1.9,1.6,3.9,2.5,5.7,2.5c3,0,5.3-2.3,5.9-5.8c0-0.1,0.1-0.5,0.3-1.2   c0.7-3.2,2.7-11.8,4.8-22C87.4,61.5,87.1,61,86.5,60.9z M40,84.6c-0.3,0.2-0.5,0.3-0.7,0.4l1.6-19.7l10.6,8.2   C49.4,75.6,43.4,81.8,40,84.6z"/></g></svg>
