<svg xmlns="http://www.w3.org/2000/svg" data-name="Слой 1" viewBox="0 0 128 160" x="0px" y="0px"><title>brokerage, candle, candles, candlestick, forex, trading</title><path d="M58,88.08H35.71a2,2,0,0,1-2-2v-57a2,2,0,0,1,2-2H58a2,2,0,0,1,2,2v57A2,2,0,0,1,58,88.08Zm-20.28-4H56v-53H37.71Z"/><path d="M46.85,30.92a2,2,0,0,1-2-2V2a2,2,0,1,1,4,0v27A2,2,0,0,1,46.85,30.92Z"/><path d="M46.85,107.34a2,2,0,0,1-2-2V86.08a2,2,0,0,1,4,0v19.25A2,2,0,0,1,46.85,107.34Z"/><path d="M125.8,76.22H103.52a2,2,0,0,1-2-2V44.68a2,2,0,0,1,2-2H125.8a2,2,0,0,1,2,2V74.22A2,2,0,0,1,125.8,76.22Zm-20.28-4H123.8V46.68H105.52Z"/><path d="M114.66,46.51a2,2,0,0,1-2-2V23.61a2,2,0,0,1,4,0V44.51A2,2,0,0,1,114.66,46.51Z"/><path d="M114.66,101.77a2,2,0,0,1-2-2V74.22a2,2,0,0,1,4,0V99.77A2,2,0,0,1,114.66,101.77Z"/><path d="M91.89,43.43H69.61a2,2,0,0,1-2-2v-24a2,2,0,0,1,2-2H91.89a2,2,0,0,1,2,2v24A2,2,0,0,1,91.89,43.43Zm-20.28-4H89.89v-20H71.61Z"/><path d="M80.75,19.3a2,2,0,0,1-2-2V2a2,2,0,1,1,4,0V17.3A2,2,0,0,1,80.75,19.3Z"/><path d="M80.75,80.12a2,2,0,0,1-2-2V41.43a2,2,0,0,1,4,0V78.12A2,2,0,0,1,80.75,80.12Z"/><path d="M24.08,109H1.8a2,2,0,0,1-2-2V90.5a2,2,0,0,1,2-2H24.08a2,2,0,0,1,2,2V107A2,2,0,0,1,24.08,109ZM3.8,105H22.08V92.5H3.8Z"/><path d="M12.94,128a2,2,0,0,1-2-2V107a2,2,0,0,1,4,0V126A2,2,0,0,1,12.94,128Z"/><path d="M12.94,92.5a2,2,0,0,1-2-2V37.32a2,2,0,0,1,4,0V90.5A2,2,0,0,1,12.94,92.5Z"/><text x="0" y="143" fill="#000000" font-size="5px" font-weight="bold" font-family="'Helvetica Neue', Helvetica, Arial-Unicode, Arial, Sans-serif">Created by LAFS</text><text x="0" y="148" fill="#000000" font-size="5px" font-weight="bold" font-family="'Helvetica Neue', Helvetica, Arial-Unicode, Arial, Sans-serif">from the Noun Project</text></svg>